# xmcd
#
# Track frame offsets: 
#        150
#        16507
#        44564
#        63641
#        91783
#        130006
#        163609
#
# Disc length: 2693 seconds
#
# Revision: 0
# Processed by: cddbd v1.5.2PL0 Copyright (c) Steve Scherf et al.
# Submitted via: ExactAudioCopy v1.0b1
#
DISCID=4e0a8307
DTITLE=Eric Clapton  - White'O Room'O - Tokyo, Japan - 1997-10-27 - Di
DTITLE=sc 2 
DYEAR=1900
DGENRE=
TTITLE0=Tore Down
TTITLE1=Have You Ever Loved A Woman
TTITLE2=Cocaine
TTITLE3=Tearing Us Apart
TTITLE4=Old Love
TTITLE5=Sunshine of Your Love
TTITLE6=Every Day I Have the Blues
EXTD=
EXTT0=
EXTT1=
EXTT2=
EXTT3=
EXTT4=
EXTT5=
EXTT6=
PLAYORDER=
